<mxfile host="app.diagrams.net" agent="Mozilla/5.0 (Windows NT 10.0; Win64; x64) AppleWebKit/537.36 (KHTML, like Gecko) Chrome/130.0.0.0 Safari/537.36 Edg/130.0.0.0" version="24.8.4">
  <diagram name="第 1 页" id="yfRj2XjdD5nMXKhG2BDy">
    <mxGraphModel dx="1259" dy="793" grid="1" gridSize="10" guides="1" tooltips="1" connect="1" arrows="1" fold="1" page="1" pageScale="1" pageWidth="827" pageHeight="1169" math="0" shadow="0">
      <root>
        <mxCell id="0" />
        <mxCell id="1" parent="0" />
        <mxCell id="JXbF04zAv1jOqZOH8JmN-2" value="" style="rounded=1;whiteSpace=wrap;html=1;" vertex="1" parent="1">
          <mxGeometry x="340" y="380" width="310" height="205" as="geometry" />
        </mxCell>
        <mxCell id="JXbF04zAv1jOqZOH8JmN-3" value="Qdrant向量数据库" style="shape=cylinder3;whiteSpace=wrap;html=1;boundedLbl=1;backgroundOutline=1;size=15;rotation=90;fillColor=#fff2cc;strokeColor=#d6b656;" vertex="1" parent="1">
          <mxGeometry x="160" y="180" width="110" height="140" as="geometry" />
        </mxCell>
        <mxCell id="JXbF04zAv1jOqZOH8JmN-4" value="" style="endArrow=none;html=1;rounded=0;" edge="1" parent="1">
          <mxGeometry width="50" height="50" relative="1" as="geometry">
            <mxPoint x="290" y="210" as="sourcePoint" />
            <mxPoint x="370" y="190" as="targetPoint" />
          </mxGeometry>
        </mxCell>
        <mxCell id="JXbF04zAv1jOqZOH8JmN-5" value="&lt;div&gt;&lt;br&gt;&lt;/div&gt;payload: 负载信息&lt;div&gt;Vector:向量（浮点数组）&lt;/div&gt;&lt;div&gt;id:主键id&lt;/div&gt;&lt;div&gt;&lt;br&gt;&lt;/div&gt;" style="rounded=0;whiteSpace=wrap;html=1;fillColor=#e1d5e7;strokeColor=#9673a6;" vertex="1" parent="1">
          <mxGeometry x="380" y="140" width="160" height="70" as="geometry" />
        </mxCell>
        <mxCell id="JXbF04zAv1jOqZOH8JmN-6" value="" style="endArrow=none;html=1;rounded=0;" edge="1" parent="1">
          <mxGeometry width="50" height="50" relative="1" as="geometry">
            <mxPoint x="520" y="151" as="sourcePoint" />
            <mxPoint x="590" y="111" as="targetPoint" />
          </mxGeometry>
        </mxCell>
        <mxCell id="JXbF04zAv1jOqZOH8JmN-7" value="" style="rounded=1;whiteSpace=wrap;html=1;fillColor=#d5e8d4;strokeColor=#82b366;" vertex="1" parent="1">
          <mxGeometry x="610" y="40" width="200" height="160" as="geometry" />
        </mxCell>
        <mxCell id="JXbF04zAv1jOqZOH8JmN-8" value="json格式" style="text;html=1;align=center;verticalAlign=middle;whiteSpace=wrap;rounded=0;" vertex="1" parent="1">
          <mxGeometry x="620" y="50" width="60" height="30" as="geometry" />
        </mxCell>
        <mxCell id="JXbF04zAv1jOqZOH8JmN-9" value="{ sourcefileId : xxxx,&lt;div&gt;sourceFileName : xxx,&lt;/div&gt;&lt;div&gt;text: xxxx,&lt;/div&gt;&lt;div&gt;&lt;span style=&quot;background-color: initial;&quot;&gt;snapshot:xxxx}&lt;/span&gt;&lt;/div&gt;" style="text;html=1;align=center;verticalAlign=middle;whiteSpace=wrap;rounded=0;" vertex="1" parent="1">
          <mxGeometry x="630" y="101" width="180" height="60" as="geometry" />
        </mxCell>
      </root>
    </mxGraphModel>
  </diagram>
</mxfile>
